<svg xmlns="http://www.w3.org/2000/svg" width="374" height="106" viewBox="0 0 374 106" role="img" aria-label="Barcode 955600600098"><rect width="100%" height="100%" fill="#fff"/><g fill="#111827"><rect x="20" y="8" width="4" height="72"/><rect x="26" y="8" width="2" height="72"/><rect x="32" y="8" width="2" height="72"/><rect x="42" y="8" width="6" height="72"/><rect x="52" y="8" width="2" height="72"/><rect x="56" y="8" width="4" height="72"/><rect x="64" y="8" width="4" height="72"/><rect x="70" y="8" width="6" height="72"/><rect x="80" y="8" width="2" height="72"/><rect x="86" y="8" width="4" height="72"/><rect x="92" y="8" width="6" height="72"/><rect x="102" y="8" width="2" height="72"/><rect x="108" y="8" width="4" height="72"/><rect x="116" y="8" width="6" height="72"/><rect x="124" y="8" width="2" height="72"/><rect x="130" y="8" width="2" height="72"/><rect x="136" y="8" width="6" height="72"/><rect x="144" y="8" width="4" height="72"/><rect x="152" y="8" width="2" height="72"/><rect x="158" y="8" width="6" height="72"/><rect x="166" y="8" width="4" height="72"/><rect x="174" y="8" width="4" height="72"/><rect x="182" y="8" width="6" height="72"/><rect x="190" y="8" width="2" height="72"/><rect x="196" y="8" width="2" height="72"/><rect x="202" y="8" width="6" height="72"/><rect x="210" y="8" width="4" height="72"/><rect x="218" y="8" width="2" height="72"/><rect x="224" y="8" width="6" height="72"/><rect x="232" y="8" width="4" height="72"/><rect x="240" y="8" width="2" height="72"/><rect x="246" y="8" width="6" height="72"/><rect x="254" y="8" width="4" height="72"/><rect x="262" y="8" width="6" height="72"/><rect x="272" y="8" width="2" height="72"/><rect x="276" y="8" width="4" height="72"/><rect x="284" y="8" width="6" height="72"/><rect x="292" y="8" width="2" height="72"/><rect x="298" y="8" width="4" height="72"/><rect x="306" y="8" width="8" height="72"/><rect x="316" y="8" width="2" height="72"/><rect x="320" y="8" width="6" height="72"/><rect x="328" y="8" width="4" height="72"/><rect x="338" y="8" width="6" height="72"/><rect x="346" y="8" width="2" height="72"/><rect x="350" y="8" width="4" height="72"/></g><text x="50%" y="100" text-anchor="middle" font-family="Arial, Helvetica, sans-serif" font-size="14" fill="#111827">955600600098</text></svg>